<?xml version="1.0" standalone="no"?>
<!DOCTYPE svg PUBLIC "-//W3C//DTD SVG 20010904//EN"
 "http://www.w3.org/TR/2001/REC-SVG-20010904/DTD/svg10.dtd">
<svg version="1.0" xmlns="http://www.w3.org/2000/svg"
 width="512.000000pt" height="512.000000pt" viewBox="0 0 512.000000 512.000000"
 preserveAspectRatio="xMidYMid meet">
<metadata>
Created by potrace 1.14, written by Peter Selinger 2001-2017
</metadata>
<g transform="translate(0.000000,512.000000) scale(0.100000,-0.100000)"
fill="#000000" stroke="none">
<path d="M2715 4983 c-165 -15 -298 -65 -466 -174 -117 -77 -150 -85 -234 -62
-209 56 -285 13 -386 -220 -22 -51 -44 -101 -49 -112 -65 -143 -152 -442 -205
-705 -1 -8 -6 -40 -11 -70 -4 -30 -8 -57 -9 -60 -1 -5 -15 -111 -20 -160 -9
-80 -18 -231 -19 -337 -3 -205 29 -330 109 -421 95 -109 215 -155 461 -177
111 -9 179 -36 331 -127 232 -139 388 -155 584 -58 42 21 105 57 140 81 89 60
181 96 264 104 124 10 190 17 206 20 41 8 123 36 135 46 8 6 14 8 14 5 0 -12
84 51 121 91 20 21 45 54 57 73 21 36 74 170 67 170 -2 0 0 14 5 31 5 17 12
57 16 88 26 222 23 264 -41 551 -171 772 -252 979 -460 1186 -94 94 -204 163
-316 199 -86 27 -220 44 -294 38z m-649 -996 l21 -32 -50 -35 c-27 -19 -55
-38 -61 -42 -13 -9 19 -45 59 -66 38 -19 81 -17 195 8 l90 20 82 -30 c136 -50
195 -62 293 -60 179 4 322 3 435 -4 137 -8 166 -13 168 -29 14 -202 14 -236
-6 -353 -65 -376 -253 -665 -547 -840 -139 -82 -218 -89 -338 -29 -112 57
-284 210 -382 340 -91 121 -179 325 -200 465 -4 25 -9 54 -11 65 -7 31 -6 266
1 310 11 73 47 165 82 213 38 52 122 132 138 132 5 0 19 -15 31 -33z"/>
<path d="M2984 2199 c-46 -23 -51 -88 -10 -121 16 -13 18 -20 9 -26 -15 -9
-19 -48 -10 -78 5 -14 1 -26 -13 -39 -11 -10 -20 -30 -20 -44 0 -15 -10 -33
-25 -46 -14 -11 -27 -31 -30 -43 -2 -13 -16 -35 -30 -48 -14 -12 -26 -29 -26
-36 -1 -7 -2 -17 -3 -23 0 -5 -13 -22 -28 -37 -16 -15 -28 -38 -28 -53 0 -14
-6 -25 -13 -25 -22 0 -57 -45 -57 -73 0 -15 -3 -26 -7 -26 -22 4 -43 -3 -57
-16 -12 -12 -20 -13 -35 -5 -29 15 -93 12 -119 -6 -21 -15 -25 -15 -42 1 -10
9 -30 18 -44 19 -21 1 -26 6 -26 27 0 29 -33 69 -58 69 -12 0 -17 9 -18 32 -1
21 -10 39 -26 52 -14 12 -28 33 -32 48 -3 15 -17 35 -31 44 -14 9 -25 26 -25
39 0 22 -28 55 -47 55 -6 0 -10 8 -10 18 0 40 -4 52 -23 70 -17 15 -19 24 -11
44 7 18 6 33 -4 52 -13 24 -12 29 5 46 25 25 26 81 3 103 -48 42 -123 10 -123
-53 0 -16 6 -35 14 -42 11 -11 10 -16 -10 -35 -30 -27 -31 -73 -4 -98 16 -14
19 -26 14 -56 -5 -32 -2 -41 22 -66 16 -15 30 -39 31 -53 1 -14 14 -36 30 -49
15 -13 29 -33 30 -45 2 -11 14 -31 28 -43 14 -12 25 -27 25 -33 0 -25 31 -69
52 -72 17 -2 22 -10 24 -32 1 -35 35 -66 71 -66 18 0 24 -4 19 -15 -15 -41 48
-95 93 -80 16 5 21 2 21 -12 1 -51 84 -99 143 -82 36 10 87 59 87 85 0 8 10
14 24 14 36 0 68 31 70 69 1 24 5 31 17 28 27 -7 72 35 72 67 0 19 6 30 21 36
30 11 46 32 48 64 1 14 8 26 15 26 17 0 43 40 43 67 0 12 8 24 19 28 21 6 47
58 37 74 -3 5 7 19 24 31 23 17 30 29 30 55 0 19 -5 37 -10 40 -6 4 0 15 15
27 33 25 33 70 2 102 -20 20 -22 26 -10 42 41 57 -29 134 -93 103z"/>
<path d="M1774 2129 c-23 -4 -91 -10 -150 -14 -169 -9 -247 -19 -324 -41 -112
-32 -199 -91 -331 -223 -102 -102 -131 -143 -177 -243 -76 -162 -139 -396
-157 -578 -4 -36 -8 -76 -10 -90 -11 -72 -20 -495 -16 -730 l1 -45 1941 0
1942 0 -7 205 c-3 113 -8 221 -10 240 -2 19 -7 73 -10 120 -4 47 -9 99 -11
115 -2 17 -6 50 -9 75 -4 25 -9 65 -12 90 -29 218 -115 543 -167 630 -27 44
-25 41 -96 126 -107 128 -175 175 -336 234 -56 20 -264 74 -330 86 -41 7 -161
32 -210 44 -22 5 -45 10 -51 10 -6 0 -17 -33 -24 -72 -16 -86 -15 -78 -29
-148 -6 -30 -13 -71 -16 -90 -3 -19 -8 -42 -10 -50 -2 -8 -7 -31 -10 -50 -3
-19 -11 -55 -16 -80 -6 -25 -13 -56 -15 -70 -10 -49 -56 -201 -77 -253 -87
-212 -250 -370 -418 -404 -46 -10 -143 -9 -189 1 -118 27 -247 130 -341 274
-124 188 -157 303 -224 777 -9 61 -18 119 -20 130 -2 11 -4 23 -4 27 -1 8 -18
7 -77 -3z"/>
</g>
</svg>
